<svg
 xmlns="http://www.w3.org/2000/svg"
 xmlns:xlink="http://www.w3.org/1999/xlink"
 width="48px" height="28px">
<path fill-rule="evenodd"  fill="rgb(255, 255, 255)"
 d="M47.000,28.000 L1.000,28.000 C0.448,28.000 -0.000,27.552 -0.000,27.000 L-0.000,25.524 C-0.000,24.972 0.448,24.524 1.000,24.524 L47.000,24.524 C47.552,24.524 48.000,24.972 48.000,25.524 L48.000,27.000 C48.000,27.552 47.552,28.000 47.000,28.000 ZM47.000,15.726 L1.000,15.726 C0.448,15.726 -0.000,15.278 -0.000,14.726 L-0.000,13.274 C-0.000,12.722 0.448,12.274 1.000,12.274 L47.000,12.274 C47.552,12.274 48.000,12.722 48.000,13.274 L48.000,14.726 C48.000,15.278 47.552,15.726 47.000,15.726 ZM47.000,3.500 L1.000,3.500 C0.448,3.500 -0.000,3.052 -0.000,2.500 L-0.000,1.000 C-0.000,0.448 0.448,-0.000 1.000,-0.000 L47.000,-0.000 C47.552,-0.000 48.000,0.448 48.000,1.000 L48.000,2.500 C48.000,3.052 47.552,3.500 47.000,3.500 Z"/>
</svg>
