<svg
xmlns="http://www.w3.org/2000/svg"
xmlns:xlink="http://www.w3.org/1999/xlink"
width="16px" height="11px">
<path fill-rule="evenodd"  fill="rgb(255, 255, 255)"
d="M14.493,0.172 L14.000,-0.000 L14.000,-0.000 L14.000,-0.000 L1.000,-0.000 C0.635,0.001 0.001,0.634 -0.000,1.000 L-0.000,10.000 C0.001,10.365 0.636,10.998 1.000,11.000 L15.000,11.000 C15.367,10.998 14.999,10.365 15.000,10.000 L15.000,1.000 C14.999,0.633 14.859,0.172 14.493,0.172 ZM14.000,10.000 C14.000,10.039 15.040,10.000 15.000,10.000 L1.000,10.000 C0.961,10.000 1.000,10.039 1.000,10.000 L1.000,10.000 L6.000,6.000 L6.783,6.794 C6.987,6.961 7.242,7.038 7.491,7.038 C7.740,7.038 7.996,6.961 8.199,6.794 L9.000,6.000 L14.000,10.000 L14.000,10.000 ZM7.827,6.341 C7.827,6.341 7.828,6.341 7.822,6.343 C7.816,6.347 8.014,5.990 8.000,6.000 C7.918,6.054 7.601,6.450 7.495,6.451 L7.489,6.451 C7.489,6.451 7.003,6.000 7.000,6.000 C6.874,5.998 7.081,6.067 7.000,6.000 L2.000,1.000 C2.013,0.988 1.515,0.812 1.000,1.000 L14.000,1.000 C14.023,1.000 13.985,0.981 14.000,1.000 L8.000,6.000 L7.827,6.341 ZM1.000,8.999 L1.000,1.000 L5.000,5.000 L1.000,8.999 ZM14.000,1.999 L14.000,8.999 L10.000,5.000 L14.000,1.999 Z"/>
</svg>
